<?xml version="1.0" encoding="UTF-8" standalone="no"?>
<!-- Created with Inkscape (http://www.inkscape.org/) -->

<svg
   xmlns:dc="http://purl.org/dc/elements/1.1/"
   xmlns:cc="http://creativecommons.org/ns#"
   xmlns:rdf="http://www.w3.org/1999/02/22-rdf-syntax-ns#"
   xmlns:svg="http://www.w3.org/2000/svg"
   xmlns="http://www.w3.org/2000/svg"
   xmlns:sodipodi="http://sodipodi.sourceforge.net/DTD/sodipodi-0.dtd"
   xmlns:inkscape="http://www.inkscape.org/namespaces/inkscape"
   width="79.678368mm"
   height="153.10558mm"
   viewBox="0 0 79.678366 153.10558"
   version="1.1"
   id="svg8"
   inkscape:version="0.92.5 (2060ec1f9f, 2020-04-08)"
   sodipodi:docname="favicon_v2.svg">
  <defs
     id="defs2" />
  <sodipodi:namedview
     id="base"
     pagecolor="#ffffff"
     bordercolor="#666666"
     borderopacity="1.0"
     inkscape:pageopacity="0.0"
     inkscape:pageshadow="2"
     inkscape:zoom="0.24748737"
     inkscape:cx="-1026.047"
     inkscape:cy="735.94921"
     inkscape:document-units="mm"
     inkscape:current-layer="layer1"
     showgrid="false"
     fit-margin-top="0"
     fit-margin-left="0"
     fit-margin-right="0"
     fit-margin-bottom="0"
     inkscape:window-width="1920"
     inkscape:window-height="1017"
     inkscape:window-x="1592"
     inkscape:window-y="-8"
     inkscape:window-maximized="1" />
  <metadata
     id="metadata5">
    <rdf:RDF>
      <cc:Work
         rdf:about="">
        <dc:format>image/svg+xml</dc:format>
        <dc:type
           rdf:resource="http://purl.org/dc/dcmitype/StillImage" />
        <dc:title></dc:title>
      </cc:Work>
    </rdf:RDF>
  </metadata>
  <g
     inkscape:label="レイヤー 1"
     inkscape:groupmode="layer"
     id="layer1"
     transform="translate(-70.7281,-212.41223)">
    <path
       style="fill:#d98e6e;stroke-width:0.35277781"
       d="m 71.036116,365.08402 c -0.09377,-0.24649 -0.129717,-24.89566 -0.07988,-54.77594 l 0.09061,-54.32779 h 24.870836 c 24.689908,0 24.892638,0.006 27.869438,0.79583 7.16839,1.90249 13.52849,6.24196 17.1887,11.72778 6.83864,10.24958 7.15398,25.60279 0.7495,36.49223 -2.82585,4.80475 -8.24338,9.38961 -13.70486,11.59844 -0.87313,0.35312 -1.7272,0.77857 -1.89794,0.94544 -0.17697,0.17295 2.27187,5.20537 5.69589,11.70518 3.30347,6.27098 8.8814,16.85246 12.39537,23.51439 3.51398,6.66193 6.29928,12.25787 6.18955,12.43542 -0.11183,0.18094 -3.97778,0.32281 -8.79655,0.32281 -7.33664,0 -8.67812,-0.0811 -9.15012,-0.55308 -0.30419,-0.3042 -4.22637,-7.88451 -8.71594,-16.84514 -11.86251,-23.67607 -14.03835,-27.86302 -14.83721,-28.55109 -0.64812,-0.55824 -1.71817,-0.61685 -11.172825,-0.61196 -5.970028,0.003 -10.68309,0.14887 -10.985226,0.3398 -0.458463,0.28973 -0.552736,3.38814 -0.705556,23.18974 l -0.176389,22.85534 -7.328454,0.0954 c -5.671105,0.0738 -7.367014,-0.006 -7.498945,-0.35278 z M 118.49068,303.9375 c 4.1074,-0.96806 7.31345,-3.4898 9.155,-7.20092 1.55312,-3.12987 1.96271,-5.1253 1.95729,-9.53545 -0.004,-3.28916 -0.15656,-4.49816 -0.8059,-6.3883 -1.99355,-5.80287 -5.85989,-9.32257 -11.2016,-10.19729 -2.7251,-0.44625 -30.144165,-0.44857 -30.85001,-0.002 -0.455451,0.28776 -0.542872,2.59181 -0.62755,16.53977 -0.08785,14.47022 -0.03793,16.26589 0.466171,16.77 0.499449,0.49944 2.239836,0.56395 15.091439,0.55933 11.78744,-0.004 14.9584,-0.10692 16.81516,-0.54453 z m -34.738004,-52.45512 -0.915462,-0.79375 -0.07435,-6.52639 c -0.04089,-3.58952 0.005,-6.75848 0.102038,-7.04213 0.206318,-0.60325 -1.084397,-1.30717 -7.231945,-3.94412 -2.328334,-0.99872 -4.451404,-2.01662 -4.717934,-2.262 -0.582585,-0.53636 -0.263917,-0.74867 7.892934,-5.25852 3.104445,-1.71641 9.721777,-5.39831 14.70518,-8.182 4.983406,-2.78368 9.253903,-5.06124 9.489993,-5.06124 0.23609,0 3.38189,1.52516 6.99066,3.38924 22.28231,11.50974 25.78778,13.38185 25.78778,13.77203 0,0.23806 -0.83344,0.87948 -1.85208,1.42537 l -1.85209,0.99253 -0.0986,4.91957 c -0.0973,4.85328 -0.0835,4.95386 1.02001,7.46493 1.49714,3.40671 1.35667,3.66689 -1.97974,3.66689 -1.92385,0 -2.71932,-0.1338 -2.85206,-0.47971 -0.10125,-0.26383 0.37999,-1.84235 1.0694,-3.5078 1.11846,-2.7019 1.25349,-3.36957 1.25349,-6.19788 0,-3.21369 -0.3902,-4.2785 -1.56785,-4.2785 -0.55354,0 -3.5897,1.31462 -4.68819,2.02992 -0.72103,0.46952 -0.74351,0.57661 -0.26458,1.26037 0.41456,0.59187 0.5234,2.03863 0.5234,6.95727 0,6.12259 -0.0121,6.22136 -0.85847,7.0165 -0.84444,0.79331 -0.92081,0.79999 -4.67431,0.40879 -2.0987,-0.21874 -5.08583,-0.58731 -6.63805,-0.81905 -6.21852,-0.9284 -14.082477,-0.45456 -24.841481,1.49684 -2.590588,0.46986 -2.682818,0.4588 -3.727697,-0.44716 z"
       id="path882"
       inkscape:connector-curvature="0" />
  </g>
</svg>
