<?xml version="1.0" encoding="UTF-8" standalone="no"?>
<!-- Created with Inkscape (http://www.inkscape.org/) -->

<svg
   xmlns:dc="http://purl.org/dc/elements/1.1/"
   xmlns:cc="http://creativecommons.org/ns#"
   xmlns:rdf="http://www.w3.org/1999/02/22-rdf-syntax-ns#"
   xmlns:svg="http://www.w3.org/2000/svg"
   xmlns="http://www.w3.org/2000/svg"
   xmlns:sodipodi="http://sodipodi.sourceforge.net/DTD/sodipodi-0.dtd"
   xmlns:inkscape="http://www.inkscape.org/namespaces/inkscape"
   width="338.49731mm"
   height="125.81467mm"
   viewBox="0 0 338.49731 125.81467"
   version="1.1"
   id="svg8"
   inkscape:version="0.92.5 (2060ec1f9f, 2020-04-08)"
   sodipodi:docname="logo_r_v2.svg">
  <defs
     id="defs2" />
  <sodipodi:namedview
     id="base"
     pagecolor="#ffffff"
     bordercolor="#666666"
     borderopacity="1.0"
     inkscape:pageopacity="0.0"
     inkscape:pageshadow="2"
     inkscape:zoom="0.24748737"
     inkscape:cx="-440.69657"
     inkscape:cy="-49.724842"
     inkscape:document-units="mm"
     inkscape:current-layer="layer1"
     showgrid="false"
     fit-margin-top="0"
     fit-margin-left="0"
     fit-margin-right="0"
     fit-margin-bottom="0"
     inkscape:window-width="1920"
     inkscape:window-height="1017"
     inkscape:window-x="1592"
     inkscape:window-y="-8"
     inkscape:window-maximized="1" />
  <metadata
     id="metadata5">
    <rdf:RDF>
      <cc:Work
         rdf:about="">
        <dc:format>image/svg+xml</dc:format>
        <dc:type
           rdf:resource="http://purl.org/dc/dcmitype/StillImage" />
        <dc:title></dc:title>
      </cc:Work>
    </rdf:RDF>
  </metadata>
  <g
     inkscape:label="レイヤー 1"
     inkscape:groupmode="layer"
     id="layer1"
     transform="translate(-164.8823,84.163294)">
    <g
       id="g21"
       transform="translate(236.6131,-145.89881)">
      <path
         style="fill:#eeeade;stroke-width:0.16933332"
         d="M -71.730797,124.64285 V 61.735516 H 97.517858 266.76651 v 62.907334 62.90734 H 97.517858 -71.730797 Z"
         id="path25"
         inkscape:connector-curvature="0" />
      <path
         style="fill:#e88a67;stroke-width:0.16933332"
         d="m 7.3478642,169.85117 c -3.5464155,-0.72775 -6.95733721,-2.74477 -9.8650308,-5.8336 -2.3242641,-2.46905 -6.9867555,-9.17364 -8.3925764,-12.06839 -1.73293,-3.5683 -2.29145,-5.83551 -2.284215,-9.27233 0.0057,-2.70567 0.248355,-3.947 1.234738,-6.3164 1.9886085,-4.77685 7.4058338,-9.43021 12.79082473,-10.98723 1.15250627,-0.33323 1.73820147,-0.3908 3.97625967,-0.3908 2.2316659,0 2.8275058,0.0582 3.979333,0.38894 1.8748786,0.5383 4.7875596,1.98056 6.6035116,3.26984 1.695323,1.20363 5.360181,4.7824 6.490784,6.3383 1.999254,2.75132 3.24637,4.57774 3.24637,4.75436 0,0.2208 -4.043456,3.12067 -15.2008186,10.90166 -4.2067105,2.9337 -7.6909959,5.44054 -7.7428559,5.57077 -0.05884,0.14774 0.5280914,0.85014 1.5610246,1.86811 1.853299,1.82647 3.359436,2.70574 5.2607427,3.07119 4.8542732,0.93303 10.6435612,-2.42856 13.2885222,-7.71607 1.047064,-2.09318 1.272758,-3.11491 1.3882,-6.2845 0.165872,-4.5542 -0.008,-4.07237 2.048123,-5.67739 0.972251,-0.75896 1.767728,-1.45027 1.767728,-1.53623 0,-0.086 -0.769157,-1.27505 -1.70924,-2.64242 l -1.709242,-2.48613 0.08932,-9.906 c 0.04913,-5.4483 0.172227,-10.7823 0.273558,-11.85333 1.184864,-12.5235 5.267533,-16.724672 17.11027,-17.606911 3.113312,-0.231929 27.084528,-0.505646 44.576997,-0.509004 l 14.350998,-0.0028 0.003,-3.937 c 0.002,-2.16535 0.0698,-4.043094 0.15189,-4.172764 0.11593,-0.183065 2.31071,1.174279 9.81874,6.072305 5.31819,3.469438 9.6675,6.394933 9.66513,6.501098 -0.004,0.160491 -18.62985,12.422886 -19.1654,12.617336 -0.39057,0.14181 -0.46789,-0.58576 -0.47036,-4.42631 l -0.003,-4.02468 -4.106332,0.0453 -4.106333,0.0453 -0.09376,22.352 c -0.0847,20.19257 -0.122244,22.51994 -0.388601,24.0903 -0.800175,4.71757 -2.101151,7.93062 -4.456014,11.0051 -3.511734,4.58488 -9.265298,7.14992 -16.566959,7.38585 -11.238889,0.36315 -18.936953,-4.55266 -21.975824,-14.03325 -1.281713,-3.99866 -1.210527,-2.43864 -1.266686,-27.75903 -0.03573,-16.10681 -0.104008,-22.74374 -0.235629,-22.90233 -0.443804,-0.53475 -4.656812,-0.0861 -6.597924,0.70268 -1.315908,0.5347 -2.962612,1.71645 -3.956712,2.83951 -1.025251,1.15826 -2.492905,4.17187 -3.031702,6.22517 -1.102864,4.20289 -1.303414,7.5947 -1.261546,21.336 0.04101,13.45928 -0.09705,15.28447 -1.468537,19.41429 -1.675519,5.04532 -4.744262,9.11264 -9.018445,11.95305 -2.722934,1.80953 -5.717294,3.08787 -8.464057,3.61341 -1.544426,0.2955 -4.6571743,0.28683 -6.1382668,-0.0171 z M 73.294313,159.33313 c 4.942196,-0.93575 8.20189,-4.30858 9.460167,-9.78853 0.345167,-1.50324 0.353341,-1.96822 0.410904,-23.37775 0.0323,-12.0142 0.0157,-22.01591 -0.03688,-22.22603 l -0.09561,-0.38203 -13.246847,0.0434 -13.246848,0.0434 -0.04923,21.75933 c -0.03461,15.2949 0.0067,22.16179 0.139062,23.114 0.648587,4.66615 3.040849,8.15215 6.782997,9.88418 1.642301,0.76013 2.72745,1.0423 4.636223,1.20557 1.712899,0.14651 3.517969,0.0517 5.246071,-0.27547 z M 6.0596931,144.53952 c 4.3348349,-3.02684 7.9223369,-5.60566 7.9722279,-5.73072 0.112913,-0.28304 -1.832913,-2.32379 -3.212724,-3.36945 -1.381763,-1.04714 -3.1478587,-1.86237 -4.7363797,-2.18631 -2.337953,-0.47678 -4.4824207,0.1252 -6.81856518,1.91405 -4.11677752,3.15233 -5.03513142,7.77153 -2.57033592,12.92843 0.6912271,1.4462 1.1228578,2.08003 1.3577434,1.99378 0.069584,-0.0255 3.6731987,-2.52295 8.0080335,-5.54978 z M 168.89185,168.38851 c -9.47406,-0.88519 -15.50206,-6.76001 -16.59659,-16.17487 -0.31117,-2.67663 -0.13169,-14.31333 0.24634,-15.97146 1.362,-5.97394 4.21769,-9.84822 8.98664,-12.19203 2.95749,-1.45353 6.06496,-2.08389 10.24228,-2.07769 5.39259,0.008 9.77963,1.34346 13.34269,4.06162 1.46099,1.11455 2.94609,2.72465 2.87738,3.11957 -0.0381,0.21909 -2.80945,2.80108 -5.92689,5.52194 -0.26382,0.23024 -0.38909,0.16293 -1.37934,-0.74108 -2.54752,-2.32569 -5.44056,-3.44044 -8.9451,-3.44672 -5.09666,-0.009 -8.61155,2.31571 -10.08791,6.67245 l -0.46357,1.36794 v 6.51934 c 0,5.80036 0.0338,6.64071 0.30915,7.62 0.80792,2.87362 2.43122,4.9588 4.75011,6.10169 1.72271,0.84907 3.24728,1.17294 5.53901,1.1767 2.20854,0.004 3.87351,-0.38988 5.72473,-1.35299 1.33703,-0.69559 3.61244,-2.46307 3.79993,-2.95166 0.0558,-0.14542 0.22563,-0.26441 0.37739,-0.26441 0.34881,0 6.33871,5.72145 6.33871,6.05463 0,0.39257 -2.34932,2.71008 -3.556,3.50785 -3.12813,2.0681 -6.34716,3.12076 -10.62816,3.4755 -2.24905,0.18636 -2.69985,0.18397 -4.95051,-0.0263 z m 57.31933,-0.42129 c -3.26557,-0.69247 -6.08951,-2.34806 -9.05564,-5.30903 -2.09084,-2.08721 -2.95493,-3.19979 -6.31261,-8.128 -3.54829,-5.208 -4.9488,-9.10153 -4.93363,-13.71601 0.008,-2.50488 0.22137,-3.6671 1.08164,-5.89785 1.87728,-4.86794 7.55743,-9.86888 12.95491,-11.40582 1.15424,-0.32867 1.743,-0.38468 3.97933,-0.37856 2.37175,0.006 2.77143,0.0522 4.14774,0.47396 4.68283,1.43517 8.89608,4.53131 12.81738,9.41894 1.37158,1.7096 3.36672,4.63908 3.32007,4.87493 -0.0571,0.28887 -1.07751,1.02196 -13.63181,9.79356 -5.04861,3.52743 -9.21717,6.50616 -9.26346,6.61939 -0.12687,0.31027 1.46903,2.12614 2.65958,3.02618 2.13991,1.61775 3.92445,2.18817 6.4601,2.06496 1.87045,-0.0909 3.46561,-0.61668 5.38473,-1.77488 2.56481,-1.54787 4.33067,-3.49383 5.65475,-6.23147 0.96056,-1.98603 1.35458,-3.58099 1.77787,-7.19667 0.19078,-1.62983 0.37802,-3.12911 0.41605,-3.33174 0.04,-0.21318 0.67554,-0.84897 1.5084,-1.509 0.7916,-0.62732 1.43927,-1.22636 1.43927,-1.33118 0,-0.10483 -0.6096,-1.076 -1.35467,-2.15817 -1.2827,-1.86304 -1.35467,-2.0161 -1.35467,-2.88089 0,-0.50233 -0.0806,-1.9382 -0.1791,-3.19084 -0.46743,-5.94385 -1.55468,-10.50598 -3.45254,-14.48683 -3.04011,-6.3768 -7.76965,-10.10359 -14.40235,-11.34878 -1.54907,-0.29082 -2.65276,-0.3179 -12.954,-0.3179 h -11.26067 v 27.00866 c 0,25.31383 0.0184,27.04237 0.29378,27.54565 0.16158,0.29535 0.54258,0.71445 0.84666,0.93134 0.5037,0.35926 0.77887,0.40188 3.09289,0.47902 l 2.54,0.0847 v 4.14867 4.14867 l -3.81,-0.004 c -3.18832,-0.003 -3.97577,-0.054 -4.826,-0.31135 -3.41958,-1.03525 -5.65615,-3.46231 -6.73157,-7.30488 l -0.37912,-1.35467 -0.0853,-27.51667 -0.0853,-27.51666 h -4.14866 -4.14867 l -0.0455,4.0406 c -0.042,3.7362 -0.0675,4.03477 -0.33867,3.96318 -0.16127,-0.0426 -4.52231,-2.83549 -9.69121,-6.20644 -6.04278,-3.94088 -9.398,-6.227183 -9.398,-6.403973 0,-0.330705 19.05147,-12.816296 19.25125,-12.616518 0.0722,0.07217 0.15167,1.995709 0.17665,4.274521 l 0.0454,4.1433 19.812,0.03918 c 19.63433,0.03883 22.79651,0.116644 26.3858,0.649319 12.67555,1.881131 19.67569,7.833371 22.11427,18.803851 0.76624,3.44705 0.93579,5.45684 0.93408,11.07232 -0.002,6.60048 -0.50395,11.84407 -1.95322,20.40466 -0.80207,4.7377 -1.39567,6.79807 -2.73199,9.48267 -3.08201,6.19165 -9.24769,10.96902 -15.94087,12.35154 -1.61023,0.3326 -5.02224,0.32479 -6.62541,-0.0152 z m -0.99812,-25.3064 c 4.414,-3.08222 8.02546,-5.68282 8.02546,-5.77911 0,-0.31104 -2.76078,-2.92994 -3.89145,-3.69146 -4.41928,-2.97643 -8.60605,-2.49029 -12.33172,1.43188 -2.82103,2.96981 -3.33852,6.71947 -1.51784,10.99801 0.62298,1.46399 1.34346,2.64471 1.6138,2.64471 0.042,0 3.68774,-2.52181 8.10175,-5.60403 z m -283.148517,25.20723 c -0.04486,-0.11799 -0.06201,-14.38773 -0.03812,-31.71053 l 0.04344,-31.496 13.207999,-0.0506 c 9.014637,-0.0345 13.705353,0.01 14.774532,0.13927 8.003213,0.96995 13.50949,5.89942 15.221894,13.62732 0.370674,1.67281 0.493825,5.66637 0.233802,7.58177 -0.864095,6.36515 -4.469264,11.30741 -9.979119,13.68018 -0.80031,0.34464 -1.477222,0.73683 -1.504248,0.87153 -0.02703,0.1347 3.157916,6.31738 7.077647,13.7393 3.919733,7.42192 7.080597,13.56913 7.024145,13.66048 -0.06337,0.10253 -2.034376,0.16607 -5.151914,0.16607 -4.466793,0 -5.076082,-0.0319 -5.281674,-0.27697 -0.12782,-0.15234 -3.2042,-6.15309 -6.8364,-13.33501 l -6.603999,-13.05802 h -6.604 -6.603999 l -0.08467,13.29267 -0.08467,13.29267 -4.364547,0.0452 c -3.40025,0.0352 -4.382568,-0.002 -4.446111,-0.16934 z m 29.067819,-35.88345 c 2.264767,-1.08154 3.649458,-2.71413 4.492244,-5.29647 0.389218,-1.19259 0.447849,-1.66099 0.457378,-3.65395 0.0082,-1.70592 -0.06628,-2.56529 -0.293352,-3.38666 -0.962836,-3.48283 -3.501833,-5.9143 -6.710098,-6.42592 -1.171645,-0.18684 -17.381947,-0.25522 -17.850816,-0.0753 -0.239888,0.0921 -0.26785,1.10555 -0.26785,9.70845 0,5.28311 0.0538,9.65946 0.119563,9.72522 0.06576,0.0658 4.31391,0.0975 9.440333,0.0705 l 9.320769,-0.049 z m 125.400515,35.81283 c -0.06363,-0.0636 -0.115686,-10.22944 -0.115686,-22.59068 0,-20.33805 0.02547,-22.48477 0.26785,-22.57778 0.349438,-0.13409 8.089529,-0.13409 8.438969,0 0.22917,0.0879 0.26785,0.50363 0.26785,2.87866 0,1.56335 0.0676,2.77589 0.15475,2.77589 0.0851,0 0.55817,-0.50699 1.05124,-1.12664 1.80308,-2.26595 4.74018,-4.14204 7.56185,-4.83017 1.69516,-0.41341 4.64537,-0.48309 6.47216,-0.15287 6.57113,1.18782 10.64077,5.74736 11.95943,13.3991 0.23641,1.3718 0.28658,3.74704 0.35095,16.61748 0.0539,10.78263 0.0223,15.11562 -0.11227,15.367 -0.18171,0.33954 -0.31472,0.3501 -4.40878,0.3501 -4.00028,0 -4.23061,-0.0172 -4.39671,-0.32754 -0.11692,-0.21848 -0.17529,-5.16801 -0.17529,-14.86575 0,-16.06683 0.0397,-15.42401 -1.09779,-17.75468 -1.42673,-2.92322 -4.3046,-4.4747 -8.30021,-4.4747 -4.47561,0 -7.36624,1.8332 -8.61151,5.46132 -0.35826,1.04377 -0.36429,1.26543 -0.44782,16.46735 l -0.0847,15.40933 -4.32931,0.0451 c -2.381132,0.0248 -4.381376,-0.007 -4.445003,-0.0705 z M 137.982,167.69585 c -0.0443,-0.11641 -0.061,-10.30816 -0.037,-22.64833 l 0.0435,-22.43667 4.21237,-0.0453 c 2.9655,-0.0319 4.28122,0.0118 4.445,0.14774 0.19514,0.16196 0.23263,3.80239 0.23263,22.59089 0,20.26767 -0.0255,22.40759 -0.26785,22.5006 -0.14732,0.0565 -2.13091,0.10278 -4.40798,0.10278 -3.15626,0 -4.15927,-0.0503 -4.22069,-0.21167 z m 0.0375,-50.19043 c -0.0636,-0.0636 -0.11568,-2.19033 -0.11568,-4.72601 0,-4.04781 0.0327,-4.62287 0.26785,-4.71311 0.14732,-0.0565 2.08109,-0.10278 4.29725,-0.10278 3.20868,0 4.06871,0.0473 4.2223,0.2324 0.13629,0.16422 0.17962,1.56756 0.14774,4.78366 l -0.0452,4.55127 -4.32931,0.0451 c -2.38113,0.0248 -4.38138,-0.007 -4.445,-0.0706 z m -21.01409,-14.09083 c -0.0497,-0.0804 1.20308,-0.99101 2.78401,-2.02348 1.58091,-1.03247 2.8744,-1.950422 2.8744,-2.039893 0,-0.08947 -0.47625,-0.463909 -1.05834,-0.832084 -3.77237,-2.386069 -5.07417,-3.306254 -4.85106,-3.428968 0.32111,-0.176609 51.12139,0.01825 51.12139,0.19609 0,0.07751 -1.2954,0.988312 -2.87866,2.024004 -1.58327,1.035692 -2.87786,1.970417 -2.87687,2.077168 0.002,0.10675 1.25828,1.010563 2.79399,2.008483 1.53572,0.99791 2.79221,1.89326 2.79221,1.98966 0,0.21865 -50.56598,0.24759 -50.70107,0.029 z M -50.409473,102.3278 c -0.600693,-0.4612 -0.662659,-0.89906 -0.662659,-4.682484 0,-2.736 0.05295,-3.736466 0.197746,-3.736466 0.108761,0 1.528413,0.536148 3.154783,1.19144 6.034813,2.431523 2.701241,0.839526 -6.485195,-3.097105 -3.257892,-1.396093 -4.172077,-1.867529 -3.969254,-2.046902 0.04102,-0.03628 3.465487,-1.953038 7.60992,-4.259461 4.144433,-2.306424 8.36236,-4.654659 9.373172,-5.218298 l 1.83784,-1.024802 2.395493,1.207721 c 7.818673,3.941892 16.619493,8.62437 16.619493,8.842405 0,0.13544 -0.511998,0.492762 -1.143,0.797699 l -1.143,0.552364 v 2.881904 2.881905 l 0.691251,1.535174 c 0.380189,0.844345 0.64928,1.64455 0.597982,1.778232 -0.1432,0.373174 -3.29071,0.350294 -3.434711,-0.02496 -0.05657,-0.147412 0.213344,-1.042762 0.599804,-1.989667 0.684733,-1.677736 0.702608,-1.771526 0.700831,-3.677446 -0.002,-2.131871 -0.08972,-2.3622 -0.899805,-2.3622 -0.463457,0 -9.172647,4.040482 -9.025774,4.187354 0.03687,0.03687 1.362756,-0.509202 2.946415,-1.213493 1.58366,-0.70429 2.989561,-1.280527 3.124229,-1.280527 0.195016,0 0.267258,0.439409 0.35496,2.159 0.16278,3.191689 0.135443,5.223153 -0.07655,5.688423 -0.368664,0.80913 -0.729144,0.86293 -3.655,0.54546 -1.471962,-0.15971 -3.418743,-0.39895 -4.32618,-0.53164 -2.14774,-0.31404 -4.888672,-0.30553 -6.901447,0.0214 -3.039273,0.49372 -7.313239,1.09198 -7.762722,1.0866 -0.247469,-0.003 -0.570848,-0.0982 -0.718619,-0.21167 z m 6.618674,-5.794283 c -0.232833,-0.133099 -0.499533,-0.241999 -0.592667,-0.241999 -0.09313,0 0.02117,0.1089 0.254,0.241999 0.232834,0.133099 0.499534,0.241999 0.592667,0.241999 0.09313,0 -0.02117,-0.1089 -0.254,-0.241999 z"
         id="path23"
         inkscape:connector-curvature="0" />
    </g>
  </g>
</svg>
