<?xml version="1.0" encoding="UTF-8" standalone="no"?>
<!-- Created with Inkscape (http://www.inkscape.org/) -->

<svg
   xmlns:dc="http://purl.org/dc/elements/1.1/"
   xmlns:cc="http://creativecommons.org/ns#"
   xmlns:rdf="http://www.w3.org/1999/02/22-rdf-syntax-ns#"
   xmlns:svg="http://www.w3.org/2000/svg"
   xmlns="http://www.w3.org/2000/svg"
   xmlns:sodipodi="http://sodipodi.sourceforge.net/DTD/sodipodi-0.dtd"
   xmlns:inkscape="http://www.inkscape.org/namespaces/inkscape"
   width="311.00226mm"
   height="90.229088mm"
   viewBox="0 0 311.00225 90.22909"
   version="1.1"
   id="svg8"
   inkscape:version="0.92.5 (2060ec1f9f, 2020-04-08)"
   sodipodi:docname="logo_r_v4.svg">
  <defs
     id="defs2" />
  <sodipodi:namedview
     id="base"
     pagecolor="#ffffff"
     bordercolor="#666666"
     borderopacity="1.0"
     inkscape:pageopacity="0.0"
     inkscape:pageshadow="2"
     inkscape:zoom="0.49497475"
     inkscape:cx="-286.41671"
     inkscape:cy="-190.8564"
     inkscape:document-units="mm"
     inkscape:current-layer="layer1"
     showgrid="false"
     fit-margin-top="0"
     fit-margin-left="0"
     fit-margin-right="0"
     fit-margin-bottom="0"
     inkscape:window-width="1920"
     inkscape:window-height="1017"
     inkscape:window-x="1592"
     inkscape:window-y="-8"
     inkscape:window-maximized="1" />
  <metadata
     id="metadata5">
    <rdf:RDF>
      <cc:Work
         rdf:about="">
        <dc:format>image/svg+xml</dc:format>
        <dc:type
           rdf:resource="http://purl.org/dc/dcmitype/StillImage" />
        <dc:title></dc:title>
      </cc:Work>
    </rdf:RDF>
  </metadata>
  <g
     inkscape:label="レイヤー 1"
     inkscape:groupmode="layer"
     id="layer1"
     transform="translate(-37.879848,97.913044)">
    <path
       inkscape:connector-curvature="0"
       id="path42"
       d="m 102.70421,-7.9985321 c -3.521609,-0.81375 -5.621959,-2.0454599 -8.778599,-5.1480299 -1.93244,-1.89935 -2.78788,-2.93739 -4.83254,-5.86414 -3.89609,-5.57691 -5.12994,-7.96477 -6.12485,-11.85334 -0.33687,-1.31664 -0.41186,-2.02943 -0.41313,-3.92649 -0.002,-3.72301 0.82541,-6.44313 2.79915,-9.19684 1.03423,-1.44294 4.33499,-4.63131 5.84255,-5.64362 1.66085,-1.11523 3.80096,-2.12429 5.49609,-2.5914 1.74495,-0.48083 5.480889,-0.52821 7.196669,-0.0913 3.50975,0.89381 6.92525,2.8949 10.07672,5.90379 1.78135,1.70075 3.60995,3.78904 4.64193,5.30115 0.31781,0.46566 0.90809,1.32781 1.31172,1.91589 0.88913,1.29541 0.85929,1.39207 -0.77994,2.52667 -0.64108,0.44372 -2.44873,1.72759 -4.01701,2.85303 -1.56828,1.12544 -3.42292,2.43893 -4.12142,2.91887 -1.38048,0.94853 -3.85385,2.67108 -6.51934,4.54031 -0.93133,0.65312 -2.60773,1.81894 -3.72533,2.59072 -1.117599,0.77178 -2.253809,1.61809 -2.524899,1.88069 -0.46706,0.45243 -0.47906,0.49859 -0.22894,0.88033 0.51512,0.78617 2.359239,2.52544 3.371109,3.17945 1.58098,1.02183 2.69817,1.38167 4.59755,1.48081 1.26967,0.0663 1.92512,0.0159 2.794,-0.21468 3.96753,-1.05296 7.27143,-3.74887 9.19889,-7.50606 1.23374,-2.40494 1.38149,-3.0928 1.49066,-6.94009 l 0.0976,-3.44072 0.77094,-0.70794 c 0.42402,-0.38937 1.20043,-1.05085 1.72535,-1.46995 0.52493,-0.4191 0.99987,-0.87058 1.05545,-1.00329 0.10792,-0.25773 -0.13807,-0.67169 -2.08589,-3.51032 l -1.24349,-1.81217 0.0951,-9.07144 c 0.11339,-10.81811 0.30744,-14.12255 1.02822,-17.5089 0.45373,-2.13169 0.9202,-3.4784 1.79905,-5.19388 1.33436,-2.60466 3.33195,-4.38303 6.51062,-5.79616 2.00072,-0.88945 4.60268,-1.37084 8.88667,-1.64411 3.21302,-0.20496 29.71651,-0.531 46.65133,-0.5739 l 11.51466,-0.0292 0.0433,-3.81 c 0.0238,-2.0955 0.0798,-3.90854 0.12449,-4.02897 0.10315,-0.27804 0.18937,-0.23204 3.02682,1.61471 1.22326,0.79615 2.83371,1.84352 3.57878,2.3275 1.27228,0.82643 3.16968,2.06849 9.62089,6.29795 2.2672,1.48639 2.67001,1.81369 2.62466,2.13267 -0.0568,0.39946 -0.32469,0.58679 -7.92755,5.54322 -2.18864,1.4268 -5.45652,3.56584 -7.26197,4.75343 -1.80544,1.18758 -3.38522,2.11986 -3.51063,2.07174 -0.18043,-0.0692 -0.23749,-0.9234 -0.27337,-4.09221 l -0.0454,-4.00471 -4.08314,-0.0453 c -3.26669,-0.0362 -4.12114,5.1e-4 -4.27316,0.18365 -0.13762,0.16583 -0.20599,6.24782 -0.24799,22.05863 -0.0389,14.63601 -0.12029,22.35979 -0.24704,23.43834 -0.32924,2.80149 -1.22718,5.94193 -2.32403,8.128 -1.28544,2.56194 -1.97052,3.53027 -3.66906,5.18604 -3.13427,3.05535 -6.4109,4.58566 -11.74091,5.4834299 -1.19087,0.20059 -7.4405,0.14319 -9.05933,-0.0832 -3.58588,-0.5014799 -7.51446,-2.2058899 -9.92192,-4.3046099 -1.45987,-1.27266 -2.90495,-2.85445 -3.78052,-4.13817 -1.33401,-1.95587 -2.55521,-5.18361 -3.11738,-8.23949 -0.14563,-0.79163 -0.32113,-1.66793 -0.39,-1.94733 -0.0689,-0.2794 -0.16819,-10.6807 -0.2207,-23.114 l -0.0955,-22.606 -2.37067,0.0142 c -2.01861,0.0121 -2.53412,0.072 -3.47133,0.40368 -2.07836,0.73554 -3.07995,1.34913 -4.40267,2.69713 -2.05781,2.09714 -3.36693,5.02668 -4.05623,9.07703 -0.11095,0.65193 -0.28134,1.60443 -0.37866,2.11667 -0.10718,0.56423 -0.22882,6.63812 -0.30857,15.40933 -0.13792,15.16928 -0.14607,15.32774 -0.9667,18.796 -1.24483,5.26103 -4.24951,10.04906 -8.0905,12.89237 -2.87352,2.12714 -5.88229,3.6375099 -8.72067,4.3776699 -1.71328,0.44677 -2.21191,0.50555 -4.14866,0.48903 -1.42391,-0.0121 -2.64985,-0.1224 -3.47134,-0.31223 z m 66.40903,-10.2686299 c 1.49179,-0.3393 3.28679,-1.07094 4.24521,-1.73035 0.40163,-0.27633 1.24697,-1.02459 1.87854,-1.66281 1.41012,-1.42495 2.465,-3.44105 3.07842,-5.88354 l 0.42071,-1.67516 -0.043,-22.37018 -0.043,-22.37017 h -13.29267 -13.29266 l -0.0517,21.42067 c -0.059,24.43969 -0.0759,24.07601 1.27088,27.34733 1.4365,3.48927 4.13992,5.80747 7.90879,6.78186 1.95803,0.50622 6.00112,0.57889 7.92041,0.14235 z m -67.33098,-14.8018 c 6.65822,-4.65776 7.86204,-5.56213 7.86322,-5.90722 10e-4,-0.28754 -0.40976,-0.81142 -1.3956,-1.77997 -1.60929,-1.58107 -2.84209,-2.4406 -4.5742,-3.18923 -1.14954,-0.49683 -1.3566,-0.53028 -3.34213,-0.53982 l -2.116669,-0.0102 -1.43933,0.74204 c -1.04419,0.53832 -1.81668,1.11001 -2.8138,2.08237 -2.23381,2.17835 -2.94354,3.82631 -2.94354,6.83483 0,1.60237 0.07,2.11108 0.44502,3.23316 0.76105,2.27721 1.85885,4.23253 2.29475,4.08723 0.0882,-0.0294 3.69827,-2.52836 8.022279,-5.55322 z m 161.87327,23.5456799 c -0.18626,-0.0827 -0.6278,-0.15564 -0.9812,-0.16219 -1.26109,-0.0234 -2.94855,-0.5674099 -5.28413,-1.7036599 -2.20976,-1.07504 -2.48043,-1.2609 -3.98802,-2.73853 -0.88956,-0.87187 -1.95255,-2.0788 -2.36223,-2.68207 -1.4384,-2.11816 -2.53155,-5.21533 -3.03413,-8.59645 -0.28988,-1.95024 -0.23726,-12.48573 0.0727,-14.55892 0.97431,-6.51621 4.08615,-11.05737 9.31164,-13.58868 3.05262,-1.47874 5.7234,-2.02526 9.92009,-2.02997 2.55422,-0.003 3.16262,0.0596 5.94379,0.60984 3.37598,0.66798 6.97179,2.62498 9.23979,5.02873 1.19019,1.26142 1.17443,1.53858 -0.15278,2.68627 -0.57299,0.49548 -1.82234,1.64382 -2.77637,2.55187 -0.954,0.90805 -1.86466,1.651 -2.02367,1.651 -0.159,0 -0.67508,-0.34704 -1.14686,-0.77121 -1.56614,-1.4081 -4.07551,-2.66579 -6.38866,-3.20198 -1.74587,-0.40469 -4.19645,-0.33721 -6.08011,0.16743 -1.93938,0.51957 -3.16926,1.24105 -4.52843,2.65647 -1.41409,1.47263 -2.10592,2.95161 -2.6763,5.72129 -0.31875,1.54779 -0.36887,9.45915 -0.0721,11.38453 0.80972,5.25374 3.25295,8.1559 7.71772,9.16737 1.59067,0.36036 4.50534,0.36203 5.96709,0.003 2.17968,-0.53472 4.89378,-2.07648 6.35017,-3.60725 0.27354,-0.28751 0.60728,-0.52275 0.74163,-0.52275 0.31122,0 6.12702,5.54996 6.12702,5.84696 0,0.36085 -1.62037,2.0263 -2.8436,2.92271 -2.48254,1.81926 -5.48435,3.08631 -8.5864,3.6243099 -1.30654,0.22659 -8.02196,0.33878 -8.46667,0.14144 z m 59.77467,-0.0251 c -0.46567,-0.0882 -1.29859,-0.23988 -1.85092,-0.33701 -2.03132,-0.3571999 -4.64474,-1.6550599 -6.95442,-3.4536299 -2.50757,-1.95267 -4.21109,-4.04885 -8.46246,-10.41306 -2.26531,-3.3911 -3.69921,-6.60681 -4.34164,-9.73666 -0.31095,-1.51481 -0.25998,-5.51489 0.0874,-6.858 0.834,-3.22491 2.30821,-5.73834 4.84887,-8.26693 1.46763,-1.46066 4.13873,-3.44815 5.694,-4.23676 4.57646,-2.3205 9.6623,-2.26414 14.49255,0.1606 2.68766,1.34917 5.85414,3.8821 8.20281,6.56157 0.70556,0.80493 2.03373,2.51811 2.95148,3.80707 1.39104,1.95366 1.63999,2.39706 1.49648,2.66521 -0.0947,0.17692 -0.76044,0.71834 -1.47946,1.20315 -0.71904,0.48482 -2.03949,1.41907 -2.93433,2.07612 -0.89484,0.65705 -2.49504,1.79758 -3.556,2.53451 -1.06096,0.73694 -2.69101,1.87401 -3.62234,2.52683 -0.93134,0.65282 -2.2454,1.57387 -2.92014,2.04679 -2.90222,2.03412 -4.6417,3.24379 -6.30853,4.38711 -2.34433,1.60803 -2.34691,1.63136 -0.38916,3.51418 2.11125,2.03044 3.58819,2.80805 6.09368,3.2083 2.90596,0.46423 6.88375,-1.13377 9.70739,-3.89975 3.19613,-3.13088 4.41191,-6.32417 4.99641,-13.12334 0.15953,-1.85567 0.1598,-1.85616 1.6907,-3.07332 0.79107,-0.62895 1.43831,-1.23017 1.43831,-1.33604 0,-0.10587 -0.6096,-1.09819 -1.35466,-2.20516 -1.29044,-1.91723 -1.35467,-2.0574 -1.35467,-2.95616 0,-1.64432 -0.49178,-6.6207 -0.85195,-8.62088 -1.17699,-6.53645 -3.36365,-11.3325 -6.74778,-14.79999 -2.44878,-2.50909 -4.432,-3.77321 -7.5556,-4.81598 -3.05349,-1.01936 -3.58426,-1.05447 -15.94395,-1.05447 h -11.2276 l -0.0927,0.381 c -0.051,0.20955 -0.0715,12.3444 -0.0456,26.96634 l 0.0472,26.58533 0.42151,0.73627 c 0.64499,1.12662 1.07034,1.28055 3.81183,1.3795 l 2.37066,0.0856 v 4.064 4.0639999 l -3.36843,0.046 c -2.96336,0.0405 -3.52071,0.004 -4.63482,-0.3014399 -1.94029,-0.53231 -2.72564,-0.96053 -3.99769,-2.17977 -1.4513,-1.39105 -2.13516,-2.43656 -2.70429,-4.13452 -0.83059,-2.47798 -0.83054,-2.47616 -0.70354,-30.53524 0.0889,-19.63607 0.0698,-26.35928 -0.0754,-26.63066 -0.19148,-0.35779 -0.25341,-0.36237 -4.29306,-0.31769 l -4.09878,0.0453 -0.0454,4.02167 c -0.0369,3.26823 -0.0888,4.02167 -0.27715,4.02167 -0.12748,0 -1.36871,-0.74295 -2.75829,-1.651 -2.89406,-1.89116 -8.23407,-5.36192 -10.77034,-7.0002 -0.95012,-0.61372 -2.58474,-1.66975 -3.63249,-2.34672 -1.20943,-0.78144 -1.905,-1.33702 -1.905,-1.52159 0,-0.17764 0.49901,-0.60683 1.28297,-1.10345 0.70565,-0.44701 2.45836,-1.58426 3.89492,-2.52722 1.43656,-0.94297 4.48454,-2.93369 6.77326,-4.42382 2.28875,-1.49014 4.78218,-3.11507 5.541,-3.61097 0.7588,-0.4959 1.45784,-0.915 1.55341,-0.93133 0.11312,-0.0193 0.20332,1.44807 0.25844,4.20363 l 0.0847,4.23333 21.082,0.10056 c 20.46163,0.0976 22.11465,0.14022 25.146,0.64846 0.5588,0.0937 1.4732,0.24452 2.032,0.33517 3.33087,0.54034 8.34717,2.48503 11.02411,4.27376 0.45608,0.30475 1.74362,1.47295 2.86122,2.596 1.56181,1.56943 2.25166,2.41353 2.98129,3.64798 1.57661,2.66746 2.86918,6.43003 3.35852,9.77641 0.0987,0.67521 0.26177,1.74201 0.36229,2.37066 0.11931,0.74624 0.1528,3.34725 0.0965,7.493 -0.094,6.9174 -0.22114,8.77092 -0.94959,13.843 -0.097,0.67522 -0.24857,1.74202 -0.33689,2.37067 -0.29427,2.09454 -0.55826,3.60899 -1.21756,6.985 -0.54959,2.8143 -2.06972,6.32411 -3.89551,8.99428 -1.20984,1.76938 -3.80824,4.31749 -5.64835,5.53904 -1.64048,1.08903 -4.39748,2.4404 -6.35,3.11251 -2.00721,0.6909299 -5.48808,1.0828499 -7.02733,0.7911999 z m -7.19667,-22.1302299 c 1.5367,-1.07109 3.3274,-2.32145 3.97933,-2.77858 0.65194,-0.45713 2.67632,-1.87404 4.49861,-3.14868 1.82232,-1.27465 3.48922,-2.44571 3.70426,-2.60236 0.52642,-0.38351 0.373,-0.95176 -0.51788,-1.91825 -0.80335,-0.87153 -3.14067,-2.66993 -4.11813,-3.16858 -1.14066,-0.58193 -3.00216,-1.15722 -4.07486,-1.25934 -1.82991,-0.17419 -4.75896,1.09772 -6.66728,2.89522 -0.86007,0.81012 -1.90266,2.2055 -2.34845,3.1431 -0.40535,0.85255 -0.72086,2.53746 -0.71804,3.83445 0.005,2.25042 1.04615,5.41063 2.22515,6.75342 0.6218,0.7082 0.32579,0.83654 4.03729,-1.7504 z M 37.927783,-9.9090421 c -0.04426,-0.1164099 -0.06091,-14.3467599 -0.03702,-31.6229999 l 0.04345,-31.41133 13.885332,0.006 c 12.568448,0.005 14.013808,0.0341 15.239998,0.30174 1.98219,0.43267 3.36425,0.91446 5.079998,1.77089 4.43624,2.21438 7.00712,5.49007 8.6018,10.95999 0.28547,0.97921 0.35777,1.80677 0.41578,4.75883 0.0696,3.5424 0.0657,3.5906 -0.44371,5.5388 -1.41333,5.40467 -4.31718,8.9408 -9.46545,11.52641 -1.082168,0.5435 -1.562268,0.8761 -1.558918,1.08 0.005,0.29174 0.83999,1.94028 4.224288,8.33797 0.9607,1.8161 2.47115,4.6736 3.35656,6.35 2.78242,5.26812 4.34974,8.23134 5.43913,10.28335 0.5799,1.09231 1.00625,2.0638599 0.94745,2.1589999 -0.1666,0.26956 -9.76458,0.23288 -10.1225,-0.0387 -0.15344,-0.1164099 -2.31526,-4.2502599 -4.804048,-9.1863299 -6.359313,-12.61261 -8.44646,-16.67157 -8.762354,-17.0405 -0.261285,-0.30516 -0.57822,-0.31811 -6.75109,-0.27585 l -6.476933,0.0444 -0.08725,13.29267 c -0.04799,7.31096 -0.105137,13.3117099 -0.127,13.3349999 -0.02186,0.0233 -1.947143,0.0423 -4.278399,0.0423 -3.235116,0 -4.257699,-0.0501 -4.319113,-0.21167 z m 27.02814,-35.0970799 c 3.22932,-0.6793 5.2216,-2.46799 6.369278,-5.71839 0.38792,-1.09868 0.4326,-1.48549 0.44422,-3.84619 0.0103,-2.0838 -0.0507,-2.83404 -0.29597,-3.64067 -0.895738,-2.94623 -2.520998,-4.81514 -5.091238,-5.85449 l -1.016,-0.41084 h -9.313338 -9.313332 l -0.04373,9.7258 c -0.03448,7.66849 0.0014,9.75443 0.169333,9.86108 0.117187,0.0744 3.960935,0.13643 8.541662,0.13786 6.800735,0.002 8.552498,-0.0445 9.549115,-0.25416 z m 127.403757,34.75842 c -0.0443,-0.11642 -0.061,-10.19387 -0.037,-22.39434 l 0.0435,-22.18266 4.25257,-0.0452 4.25257,-0.0452 0.0819,2.55084 c 0.045,1.40296 0.15733,2.62629 0.24956,2.71852 0.11069,0.1107 0.67474,-0.35047 1.65959,-1.3569 3.28996,-3.36207 6.09906,-4.57751 10.58583,-4.58029 3.24619,-0.002 5.27093,0.50431 7.69358,1.92387 3.61019,2.11542 5.95552,5.89986 6.88584,11.11101 0.29482,1.65144 0.31757,2.87213 0.31967,17.14791 l 0.002,15.36991 -4.27567,-0.0452 -4.27567,-0.0452 -0.0955,-14.81667 c -0.0613,-9.5053 -0.15932,-15.05947 -0.27352,-15.494 -1.19409,-4.54329 -4.4093,-6.858 -9.52602,-6.858 -4.05434,0 -7.18379,2.0096 -8.43161,5.41442 l -0.46699,1.27425 -0.0478,15.28233 -0.0478,15.28233 h -4.23432 c -3.23159,0 -4.25338,-0.0501 -4.31487,-0.21166 z m 41.31847,0.003 c -0.0449,-0.11804 -0.0621,-10.19683 -0.0381,-22.3973 l 0.0435,-22.18266 4.27629,-0.0453 4.27629,-0.0452 -0.043,22.39724 -0.043,22.39725 -4.19518,0.0453 c -3.26461,0.0353 -4.21328,-0.002 -4.27687,-0.16934 z m -20.09592,-63.97826 c -0.1591,-0.0928 -0.24755,-0.27744 -0.19653,-0.41039 0.051,-0.13295 1.1479,-0.93045 2.43751,-1.77224 1.28962,-0.84178 2.38528,-1.59606 2.43479,-1.67618 0.16349,-0.26454 -0.29598,-0.63562 -2.86246,-2.31179 -3.0185,-1.97139 -2.94845,-1.9146 -2.62325,-2.12631 0.24914,-0.1622 19.57538,-0.10622 40.59625,0.11759 7.8594,0.0837 9.52499,0.14161 9.52499,0.33128 0,0.12642 -0.20955,0.35755 -0.46566,0.5136 -2.60755,1.58885 -4.61433,3.02796 -4.61433,3.30905 0,0.22538 0.68952,0.76703 2.32833,1.82899 3.0102,1.95063 3.11544,2.0284 2.99916,2.21656 -0.13817,0.22356 -49.17497,0.20361 -49.5588,-0.0202 z m -168.094049,-1.24272 c -0.781437,-0.43311 -0.852898,-0.80251 -0.859304,-4.44196 -0.0065,-3.6769 0.05433,-3.93472 0.874873,-3.70964 0.369162,0.10127 0.371751,0.0962 0.05046,-0.0985 -0.186267,-0.11291 -0.376767,-0.26073 -0.423334,-0.32849 -0.09317,-0.13559 -2.174395,-1.07041 -4.877128,-2.19065 -1.902135,-0.7884 -2.526678,-1.18993 -2.334497,-1.50088 0.06798,-0.10999 0.51825,-0.39851 1.000609,-0.64116 0.482359,-0.24266 1.372317,-0.72564 1.977683,-1.0733 0.605367,-0.34766 1.900767,-1.0744 2.878667,-1.61498 3.274584,-1.81018 4.640916,-2.57282 7.196666,-4.01695 4.09421,-2.31344 5.102646,-2.83824 5.439513,-2.830774 0.174801,0.0039 1.61322,0.677428 3.196486,1.496785 1.583267,0.819359 5.317068,2.751029 8.297328,4.292599 7.201368,3.72499 7.208378,3.72892 7.155058,4.01953 -0.0251,0.13674 -0.46413,0.48201 -0.97566,0.76727 -0.68829,0.38383 -0.94238,0.62732 -0.97747,0.93671 -0.139,1.22587 -0.3332,1.42446 -0.89539,0.91569 -0.48731,-0.44101 -1.535768,-0.34179 -2.637188,0.24958 -1.02935,0.55268 -2.04631,1.29732 -1.56298,1.14445 0.5905,-0.18676 0.65563,0.2098 0.65563,3.99191 v 3.69916 l -0.41563,0.41564 c -0.32713,0.32713 -0.58855,0.41492 -1.22767,0.41228 -0.82226,-0.003 -3.822483,-0.33701 -6.146028,-0.68342 -2.320205,-0.34591 -4.547489,-0.37703 -6.434666,-0.0899 -0.9779,0.14877 -2.6162,0.38626 -3.640667,0.52773 -1.024466,0.14148 -2.275424,0.33158 -2.779907,0.42243 -1.232805,0.22203 -2.047809,0.19917 -2.535454,-0.0711 z m 22.083842,-8.53632 c -0.0521,-0.0521 -0.18877,-1.1e-4 -0.30364,0.11562 -0.16599,0.16723 -0.14654,0.18668 0.0948,0.0948 0.16699,-0.0636 0.26097,-0.15828 0.20884,-0.21041 z"
       style="fill:#ea8b68;fill-opacity:1;stroke-width:0.16933332" />
  </g>
</svg>
